<?xml version="1.0" encoding="UTF-8" standalone="no"?>
<svg xmlns:rdf="http://www.w3.org/1999/02/22-rdf-syntax-ns#" xmlns="http://www.w3.org/2000/svg" xmlns:osb="http://www.openswatchbook.org/uri/2009/osb" viewBox="0 0 39.999999 48.000001" height="48" width="40" version="1.1" xmlns:cc="http://creativecommons.org/ns#" xmlns:xlink="http://www.w3.org/1999/xlink" xmlns:dc="http://purl.org/dc/elements/1.1/">
 <defs>
  <linearGradient id="linearGradient6053" y2="28" gradientUnits="userSpaceOnUse" y1="-2" gradientTransform="translate(4 452.36)" x2="763" x1="763">
   <stop stop-color="#fff" stop-opacity=".25098" offset="0"/>
   <stop stop-opacity=".25098" offset=".5"/>
   <stop stop-opacity=".75294" offset="1"/>
  </linearGradient>
  <linearGradient id="linearGradient6057" y2="508.36" gradientUnits="userSpaceOnUse" y1="478.36" gradientTransform="matrix(0.8 0 0 0.8 176.6 70.672)" x2="738" x1="738">
   <stop stop-color="#fff" stop-opacity=".25098" offset="0"/>
   <stop stop-color="#fff" stop-opacity="0" offset="1"/>
  </linearGradient>
  <linearGradient id="linearGradient6021" y2="69" gradientUnits="userSpaceOnUse" y1="41" gradientTransform="translate(-718 983.36)" x2="739" x1="739">
   <stop stop-opacity=".62745" offset="0"/>
   <stop stop-opacity="0" offset="1"/>
  </linearGradient>
  <linearGradient id="linearGradient6019" y2="493.36" gradientUnits="userSpaceOnUse" y1="493.36" gradientTransform="translate(-718 531)" x2="754" x1="722">
   <stop stop-opacity=".62745" offset="0"/>
  </linearGradient>
  <linearGradient id="linearGradient6029" y2="493.36" gradientUnits="userSpaceOnUse" x2="756" gradientTransform="matrix(1.1176 0 0 1.1176 -1290.2 215.6)" y1="493.36" x1="720">
   <stop stop-color="#fff" stop-opacity=".12549" offset="0"/>
  </linearGradient>
 </defs>
 <g transform="translate(0 -1004.4)">
  <path style="color:#000000" d="m20 1008.4a16 16 0 0 0 -16 16 16 16 0 0 0 16 16 16 16 0 0 0 16 -16 16 16 0 0 0 -16 -16zm0 1a15 15 0 0 1 15 15 15 15 0 0 1 -15 15 15 15 0 0 1 -15 -15 15 15 0 0 1 15 -15z" fill="url(#linearGradient6019)"/>
  <path style="color:#000000" d="m5 1024.4v13c0 8.2843 6.7157 15 15 15s15-6.7157 15-15v-13c0 8.2843-6.7157 15-15 15s-15-6.7157-15-15z" fill="url(#linearGradient6021)"/>
  <g transform="translate(-747 559)">
   <g>
    <path style="color:#000000" d="m767 450.36a15 15 0 0 0 -15 15 15 15 0 0 0 15 15 15 15 0 0 0 15 -15 15 15 0 0 0 -15 -15zm0 3a12 12 0 0 1 12 12 12 12 0 0 1 -12 12 12 12 0 0 1 -12 -12 12 12 0 0 1 12 -12z" fill="url(#linearGradient6053)"/>
    <circle style="color:#000000" cx="767" cy="465.36" r="12" fill="url(#linearGradient6057)"/>
    <path style="color:#000000" d="m767 453.36a12 12 0 0 0 -12 12 12 12 0 0 0 0.0195 0.59375 12 12 0 0 1 11.98 -11.594 12 12 0 0 1 11.98 11.406 12 12 0 0 0 0.0195 -0.40625 12 12 0 0 0 -12 -12z" fill-opacity=".25098" fill="#fff"/>
    <path style="color:#000000" d="m767 477.36a12 12 0 0 1 -12 -12 12 12 0 0 1 0.0195 -0.59375 12 12 0 0 0 11.98 11.594 12 12 0 0 0 11.98 -11.406 12 12 0 0 1 0.0195 0.40625 12 12 0 0 1 -12 12z" fill-opacity=".062745" fill="#fff"/>
   </g>
   <path style="color:#000000" d="m-478.8 753.56a19 19 0 0 1 20.706 -4.1187 19 19 0 0 1 11.729 17.554 19 19 0 0 1 -11.729 17.554 19 19 0 0 1 -20.706 -4.1187" transform="rotate(-90)" stroke="url(#linearGradient6029)" stroke-width="2" fill="none"/>
  </g>
 </g>
</svg>
