<?xml version="1.0" encoding="UTF-8" standalone="no"?>
<svg
   xmlns:osb="http://www.openswatchbook.org/uri/2009/osb"
   xmlns:dc="http://purl.org/dc/elements/1.1/"
   xmlns:cc="http://creativecommons.org/ns#"
   xmlns:rdf="http://www.w3.org/1999/02/22-rdf-syntax-ns#"
   xmlns:svg="http://www.w3.org/2000/svg"
   xmlns="http://www.w3.org/2000/svg"
   xmlns:xlink="http://www.w3.org/1999/xlink"
   version="1.1"
   id="svg8276"
   viewBox="0 0 31.999999 44.000001"
   height="44"
   width="32">
  <defs
     id="defs8278">
    <linearGradient
       osb:paint="gradient"
       id="RotaryGradient2">
      <stop
         id="stop5654"
         offset="0"
         style="stop-color:#ffffff;stop-opacity:0.25098041" />
      <stop
         style="stop-color:#000000;stop-opacity:0.25098041"
         offset="0.5"
         id="stop5676" />
      <stop
         id="stop5656"
         offset="1"
         style="stop-color:#000000;stop-opacity:0.75294119" />
    </linearGradient>
    <linearGradient
       osb:paint="gradient"
       id="KnobGradient">
      <stop
         id="stop5668"
         offset="0"
         style="stop-color:#ffffff;stop-opacity:0.25098041" />
      <stop
         id="stop5670"
         offset="1"
         style="stop-color:#ffffff;stop-opacity:0" />
    </linearGradient>
    <linearGradient
       gradientTransform="matrix(1,0,0,-1,1261,2531.1731)"
       osb:paint="solid"
       id="Hotspot">
      <stop
         id="stop4567"
         offset="0"
         style="stop-color:#ffffff;stop-opacity:0.25098041;" />
    </linearGradient>
    <linearGradient
       y2="426.38513"
       x2="781.55774"
       y1="426.38513"
       x1="754.51099"
       gradientTransform="translate(-694,-94.000015)"
       gradientUnits="userSpaceOnUse"
       id="linearGradient7623"
       xlink:href="#Hotspot" />
    <linearGradient
       osb:paint="gradient"
       id="ShadowKnob">
      <stop
         id="stop4305"
         offset="0"
         style="stop-color:#000000;stop-opacity:0.627451" />
      <stop
         id="stop4307"
         offset="1"
         style="stop-color:#000000;stop-opacity:0" />
    </linearGradient>
    <linearGradient
       gradientTransform="matrix(0.90909098,0,0,0.90909115,-407.81819,-427.69293)"
       osb:paint="solid"
       id="GeneralRecess">
      <stop
         id="stop4220"
         offset="0"
         style="stop-color:#000000;stop-opacity:0.627451;" />
    </linearGradient>
    <linearGradient
       y2="27.99996"
       x2="763"
       y1="-2"
       x1="763"
       gradientUnits="userSpaceOnUse"
       id="linearGradient6053"
       xlink:href="#RotaryGradient2" />
    <linearGradient
       y2="508.36215"
       x2="738"
       y1="478.36215"
       x1="738"
       gradientTransform="matrix(0.79999988,0,0,0.80000013,172.60007,70.672381)"
       gradientUnits="userSpaceOnUse"
       id="linearGradient6057"
       xlink:href="#KnobGradient" />
    <linearGradient
       y2="508.36215"
       x2="738"
       y1="478.36215"
       x1="738"
       gradientTransform="matrix(0.79999988,0,0,0.80000013,172.60007,-381.68978)"
       gradientUnits="userSpaceOnUse"
       id="linearGradient6059"
       xlink:href="#Hotspot" />
    <linearGradient
       y2="508.36215"
       x2="738"
       y1="478.36215"
       x1="738"
       gradientTransform="matrix(0.79999988,0,0,-0.80000013,172.60006,860.05195)"
       gradientUnits="userSpaceOnUse"
       id="linearGradient6061"
       xlink:href="#Hotspot" />
    <linearGradient
       y2="426.38513"
       x2="781.55774"
       y1="426.38513"
       x1="754.51099"
       gradientTransform="translate(-694,-94.000015)"
       gradientUnits="userSpaceOnUse"
       id="linearGradient8249"
       xlink:href="#Hotspot" />
    <linearGradient
       y2="69.000008"
       x2="739"
       y1="41.000008"
       x1="739"
       gradientTransform="translate(-722,983.36219)"
       gradientUnits="userSpaceOnUse"
       id="linearGradient6021"
       xlink:href="#ShadowKnob" />
    <linearGradient
       y2="493.36215"
       x2="754"
       y1="493.36215"
       x1="722"
       gradientTransform="translate(-722,531.00003)"
       gradientUnits="userSpaceOnUse"
       id="linearGradient6019"
       xlink:href="#GeneralRecess" />
    <linearGradient
       xlink:href="#Hotspot"
       id="linearGradient8272"
       gradientUnits="userSpaceOnUse"
       gradientTransform="translate(-694,-94.000015)"
       x1="754.51099"
       y1="426.38513"
       x2="781.55774"
       y2="426.38513" />
  </defs>
  <metadata
     id="metadata8281">
    <rdf:RDF>
      <cc:Work
         rdf:about="">
        <dc:format>image/svg+xml</dc:format>
        <dc:type
           rdf:resource="http://purl.org/dc/dcmitype/StillImage" />
        <dc:title></dc:title>
      </cc:Work>
    </rdf:RDF>
  </metadata>
  <g
     transform="translate(0,-1008.3622)"
     id="layer1">
    <path
       style="color:#000000;display:inline;overflow:visible;visibility:visible;opacity:1;fill:url(#linearGradient6019);fill-opacity:1;fill-rule:nonzero;stroke:none;stroke-width:2;stroke-linecap:butt;stroke-linejoin:miter;stroke-miterlimit:4;stroke-dasharray:none;stroke-dashoffset:0;stroke-opacity:1;marker:none;enable-background:accumulate"
       d="m 15.999998,1008.3622 a 16,16 0 0 0 -16,16 16,16 0 0 0 16,16 16,16 0 0 0 16,-16 16,16 0 0 0 -16,-16 z m 0,1 a 14.999998,15.000004 0 0 1 15,15 14.999998,15.000004 0 0 1 -15,15 14.999998,15.000004 0 0 1 -15,-15 14.999998,15.000004 0 0 1 15,-15 z"
       id="path5813" />
    <path
       style="color:#000000;display:inline;overflow:visible;visibility:visible;opacity:1;fill:url(#linearGradient6021);fill-opacity:1;fill-rule:nonzero;stroke:none;stroke-width:2;stroke-linecap:butt;stroke-linejoin:miter;stroke-miterlimit:4;stroke-dasharray:none;stroke-dashoffset:0;stroke-opacity:1;marker:none;enable-background:accumulate"
       d="m 0.999998,1024.3622 0,13 c 0,8.2843 6.71573,15 15,15 8.28427,0 15,-6.7157 15,-15 l 0,-13 c 0,8.2843 -6.71573,15 -15,15 -8.28427,0 -15,-6.7157 -15,-15 z"
       id="path5815" />
    <g
       transform="translate(-747,559.00007)"
       id="g5837">
      <path
         id="path5839"
         transform="translate(0,452.36216)"
         d="m 763,-2 a 14.999998,15.000004 0 0 0 -15,15 14.999998,15.000004 0 0 0 15,15 14.999998,15.000004 0 0 0 15,-15 14.999998,15.000004 0 0 0 -15,-15 z m 0,3 A 11.999996,12.000006 0 0 1 775,13 11.999996,12.000006 0 0 1 763,25 11.999996,12.000006 0 0 1 751,13 11.999996,12.000006 0 0 1 763,1 Z"
         style="color:#000000;display:inline;overflow:visible;visibility:visible;opacity:1;fill:url(#linearGradient6053);fill-opacity:1;fill-rule:nonzero;stroke:none;stroke-width:2;stroke-linecap:butt;stroke-linejoin:miter;stroke-miterlimit:4;stroke-dasharray:none;stroke-dashoffset:0;stroke-opacity:1;marker:none;enable-background:accumulate" />
      <ellipse
         ry="12.000006"
         rx="11.999996"
         style="color:#000000;display:inline;overflow:visible;visibility:visible;opacity:1;fill:url(#linearGradient6057);fill-opacity:1;fill-rule:nonzero;stroke:none;stroke-width:2;stroke-linecap:butt;stroke-linejoin:miter;stroke-miterlimit:4;stroke-dasharray:none;stroke-dashoffset:0;stroke-opacity:1;marker:none;enable-background:accumulate"
         id="ellipse5841"
         cx="763"
         cy="465.36215" />
      <path
         id="path5845"
         transform="translate(0,452.36216)"
         d="m 763,1 a 11.999996,12.000006 0 0 0 -12,12 11.999996,12.000006 0 0 0 0.0195,0.59375 A 11.999996,12.000006 0 0 1 763,2 11.999996,12.000006 0 0 1 774.98047,13.40625 11.999996,12.000006 0 0 0 775,13 11.999996,12.000006 0 0 0 763,1 Z"
         style="color:#000000;display:inline;overflow:visible;visibility:visible;opacity:1;fill:url(#linearGradient6059);fill-opacity:1;fill-rule:nonzero;stroke:none;stroke-width:2;stroke-linecap:butt;stroke-linejoin:miter;stroke-miterlimit:4;stroke-dasharray:none;stroke-dashoffset:0;stroke-opacity:1;marker:none;enable-background:accumulate" />
      <path
         style="color:#000000;display:inline;overflow:visible;visibility:visible;opacity:1;fill:url(#linearGradient6061);fill-opacity:1;fill-rule:nonzero;stroke:none;stroke-width:2;stroke-linecap:butt;stroke-linejoin:miter;stroke-miterlimit:4;stroke-dasharray:none;stroke-dashoffset:0;stroke-opacity:1;marker:none;enable-background:accumulate"
         d="m 762.99999,477.36217 a 11.999996,12.000006 0 0 1 -12,-12 11.999996,12.000006 0 0 1 0.0195,-0.59375 11.999996,12.000006 0 0 0 11.98047,11.59375 11.999996,12.000006 0 0 0 11.98047,-11.40625 11.999996,12.000006 0 0 1 0.0195,0.40625 11.999996,12.000006 0 0 1 -12,12 z"
         id="path5847" />
    </g>
  </g>
</svg>
