<?xml version="1.0" encoding="UTF-8" standalone="no"?>
<svg
   xmlns:osb="http://www.openswatchbook.org/uri/2009/osb"
   xmlns:dc="http://purl.org/dc/elements/1.1/"
   xmlns:cc="http://creativecommons.org/ns#"
   xmlns:rdf="http://www.w3.org/1999/02/22-rdf-syntax-ns#"
   xmlns:svg="http://www.w3.org/2000/svg"
   xmlns="http://www.w3.org/2000/svg"
   xmlns:xlink="http://www.w3.org/1999/xlink"
   version="1.1"
   id="svg17712"
   height="10"
   width="10">
  <defs
     id="defs17714">
    <linearGradient
       y2="-46.5"
       x2="392"
       y1="-46.5"
       x1="376"
       gradientTransform="matrix(0,0.26458333,0.26458333,0,13.229168,-99.48332)"
       gradientUnits="userSpaceOnUse"
       id="linearGradient6218"
       xlink:href="#Foreground" />
    <linearGradient
       osb:paint="solid"
       id="Foreground">
      <stop
         id="stop3975"
         offset="0"
         style="stop-color:#ffffff;stop-opacity:0.50196081;" />
    </linearGradient>
    <linearGradient
       y2="-46.5"
       x2="392"
       y1="-46.5"
       x1="376"
       gradientTransform="matrix(0,0.26458333,0.26458333,0,13.229168,-99.48334)"
       gradientUnits="userSpaceOnUse"
       id="linearGradient6218-7"
       xlink:href="#Foreground" />
    <linearGradient
       xlink:href="#Foreground"
       id="linearGradient6165"
       gradientUnits="userSpaceOnUse"
       gradientTransform="translate(-534,-526.36216)"
       x1="533"
       y1="531.36218"
       x2="545"
       y2="531.36218" />
  </defs>
  <metadata
     id="metadata17717">
    <rdf:RDF>
      <cc:Work
         rdf:about="">
        <dc:format>image/svg+xml</dc:format>
        <dc:type
           rdf:resource="http://purl.org/dc/dcmitype/StillImage" />
        <dc:title></dc:title>
      </cc:Work>
    </rdf:RDF>
  </metadata>
  <path
     id="path4146"
     d="M 5,0 A 5,5 0 0 0 0,5 5,5 0 0 0 5,10 5,5 0 0 0 10,5 5,5 0 0 0 5,0 Z M 5,2 A 3,3 0 0 1 8,5 3,3 0 0 1 5,8 3,3 0 0 1 2,5 3,3 0 0 1 5,2 Z"
     style="opacity:1;fill:#ffffff;fill-opacity:1;stroke:none;stroke-width:4.02519703;stroke-linecap:round;stroke-linejoin:miter;stroke-miterlimit:4;stroke-dasharray:none;stroke-opacity:1" />
</svg>
